# xmcd CD database file
#
# Track frame offsets:
#	150
#	9747
#	33461
#	43118
#	65531
#	78020
#	104091
#	119109
#	133276
#
# Disc length: 2147 seconds
#
# Revision: 0
# Processed by: cddbd v1.4PL0 Copyright (c) Steve Scherf et al.
# Submitted via: CDex 1.50Beta7
#
DISCID=82086109
DTITLE=Brenda Boykin - Conversations in Time
DYEAR=2002
DGENRE=Jazz
TTITLE0=Let´s have a Party
TTITLE1=Brick House in Memphis
TTITLE2=Maple Leaf Rag
TTITLE3=With a Little Help for my Friends
TTITLE4=Whistlin´ Woman
TTITLE5=Always on my Mind
TTITLE6=St. Louis Blues
TTITLE7=Hey Chile
TTITLE8=Bourbon Street Parade
EXTD=YEAR: 2002
EXTT0=
EXTT1=
EXTT2=
EXTT3=
EXTT4=
EXTT5=
EXTT6=
EXTT7=
EXTT8=
PLAYORDER=
